<svg xmlns="http://www.w3.org/2000/svg" data-name="Layer 1" viewBox="0 0 100 125" x="0px" y="0px"><title>a</title><path d="M49.275,42.965A8.172,8.172,0,1,0,41.1,34.792,8.181,8.181,0,0,0,49.275,42.965Zm0-14.525a6.353,6.353,0,1,1-6.353,6.353A6.36,6.36,0,0,1,49.275,28.44Zm-4.541,6.725a.91.91,0,0,1,.91-.91h2.722V31.534a.91.91,0,1,1,1.819,0v2.722h2.721a.91.91,0,0,1,0,1.819H50.184V38.8a.91.91,0,1,1-1.819,0V36.075H45.643A.91.91,0,0,1,44.734,35.165ZM94.576,81.678H92.542V79.05a.91.91,0,0,0-.91-.91H89V29.074a.91.91,0,0,0-.91-.91H66.8V25.978c0-.021,0-.04-.006-.061a.911.911,0,0,0-.01-.1c-.005-.029-.014-.056-.021-.083a.9.9,0,0,0-.027-.086c-.011-.027-.024-.053-.037-.078a.893.893,0,0,0-.043-.079c-.016-.025-.034-.047-.052-.07a.887.887,0,0,0-.057-.069.911.911,0,0,0-.073-.065c-.016-.014-.03-.03-.048-.043L49.81,13.139a.91.91,0,0,0-1.071,0l-16.615,12.1c-.018.013-.031.029-.048.043a.911.911,0,0,0-.073.065.887.887,0,0,0-.057.069c-.018.023-.036.045-.052.07a.893.893,0,0,0-.043.079c-.013.026-.027.051-.037.078a.9.9,0,0,0-.027.086c-.008.028-.016.055-.021.083a.911.911,0,0,0-.01.1c0,.021-.006.04-.006.061v2.186H10.406a.91.91,0,0,0-.91.91V78.14H8.368a.91.91,0,0,0-.91.91v2.628H5.424a.91.91,0,0,0-.91.91v3.538a.91.91,0,0,0,.91.91H94.576a.91.91,0,0,0,.91-.91V82.588A.91.91,0,0,0,94.576,81.678Zm-12.5-3.538V75.419h5.1V78.14Zm-15.278,0V41.955L80.207,48.9V78.14H66.8Zm20.382-15.9h-5.1V52.7h5.1Zm-22.253.91V74.509a.9.9,0,0,0,.051.289v3.248H58.75V63.5a4.826,4.826,0,0,0-4.82-4.82h-9.31A4.826,4.826,0,0,0,39.8,63.5V78.047h-6.23V55.069h31.36Zm-8,14.9H41.618V63.5a3,3,0,0,1,3-3h9.31a3,3,0,0,1,3,3ZM82.078,64.06h5.1V73.6h-5.1Zm5.1-13.178h-5.1V48.347a.91.91,0,0,0-.491-.808l-3.036-1.573V41.343h8.631ZM76.731,45.024l-7.107-3.682h7.107Zm-11.8,6.768v1.457H33.569v-1.9h31.36ZM20.623,45.643l-3.661,1.9a.91.91,0,0,0-.491.808v2.535H11.316V41.343h9.307Zm1.819-4.3h6.483L22.442,44.7ZM11.316,52.7h5.155v9.539H11.316Zm0,11.359h5.155V73.6H11.316ZM18.291,48.9,31.75,41.929V78.14H18.291Zm68.891-9.377H78.551V29.984h8.631ZM76.731,29.984v9.539H66.8V29.984ZM49.275,15,64.98,26.441v2.344a.9.9,0,0,0-.051.289V49.525H33.569V26.441ZM31.749,39.523H22.442V29.984h9.307ZM11.316,29.984h9.307v9.539H11.316Zm0,45.435h5.155V78.14H11.316ZM9.278,79.96H90.722v1.719H9.278Zm84.389,5.257H6.333V83.5H93.667ZM22.68,52.351v1.432a.91.91,0,0,1-.91.91H20.339a.91.91,0,0,1-.91-.91V52.351a.91.91,0,0,1,.91-.91h1.432A.91.91,0,0,1,22.68,52.351Zm7.413,0v1.432a.91.91,0,0,1-.91.91H27.752a.91.91,0,0,1-.91-.91V52.351a.91.91,0,0,1,.91-.91h1.432A.91.91,0,0,1,30.094,52.351ZM22.68,57.575v1.432a.91.91,0,0,1-.91.91H20.339a.91.91,0,0,1-.91-.91V57.575a.91.91,0,0,1,.91-.91h1.432A.91.91,0,0,1,22.68,57.575Zm7.413,0v1.432a.91.91,0,0,1-.91.91H27.752a.91.91,0,0,1-.91-.91V57.575a.91.91,0,0,1,.91-.91h1.432A.91.91,0,0,1,30.094,57.575ZM22.68,62.8v1.432a.91.91,0,0,1-.91.91H20.339a.91.91,0,0,1-.91-.91V62.8a.91.91,0,0,1,.91-.91h1.432A.91.91,0,0,1,22.68,62.8Zm7.413,0v1.432a.91.91,0,0,1-.91.91H27.752a.91.91,0,0,1-.91-.91V62.8a.91.91,0,0,1,.91-.91h1.432A.91.91,0,0,1,30.094,62.8ZM22.68,68.026v1.432a.91.91,0,0,1-.91.91H20.339a.91.91,0,0,1-.91-.91V68.026a.91.91,0,0,1,.91-.91h1.432A.91.91,0,0,1,22.68,68.026Zm7.413,0v1.432a.91.91,0,0,1-.91.91H27.752a.91.91,0,0,1-.91-.91V68.026a.91.91,0,0,1,.91-.91h1.432A.91.91,0,0,1,30.094,68.026ZM22.68,73.251v1.432a.91.91,0,0,1-.91.91H20.339a.91.91,0,0,1-.91-.91V73.251a.91.91,0,0,1,.91-.91h1.432A.91.91,0,0,1,22.68,73.251Zm7.413,0v1.432a.91.91,0,0,1-.91.91H27.752a.91.91,0,0,1-.91-.91V73.251a.91.91,0,0,1,.91-.91h1.432A.91.91,0,0,1,30.094,73.251Zm41.517-20.9v1.432a.91.91,0,0,1-.91.91H69.269a.91.91,0,0,1-.91-.91V52.351a.91.91,0,0,1,.91-.91H70.7A.91.91,0,0,1,71.611,52.351Zm7.413,0v1.432a.91.91,0,0,1-.91.91H76.682a.91.91,0,0,1-.91-.91V52.351a.91.91,0,0,1,.91-.91h1.432A.91.91,0,0,1,79.024,52.351Zm-7.413,5.225v1.432a.91.91,0,0,1-.91.91H69.269a.91.91,0,0,1-.91-.91V57.575a.91.91,0,0,1,.91-.91H70.7A.91.91,0,0,1,71.611,57.575Zm7.413,0v1.432a.91.91,0,0,1-.91.91H76.682a.91.91,0,0,1-.91-.91V57.575a.91.91,0,0,1,.91-.91h1.432A.91.91,0,0,1,79.024,57.575ZM71.611,62.8v1.432a.91.91,0,0,1-.91.91H69.269a.91.91,0,0,1-.91-.91V62.8a.91.91,0,0,1,.91-.91H70.7A.91.91,0,0,1,71.611,62.8Zm7.413,0v1.432a.91.91,0,0,1-.91.91H76.682a.91.91,0,0,1-.91-.91V62.8a.91.91,0,0,1,.91-.91h1.432A.91.91,0,0,1,79.024,62.8Zm-7.413,5.225v1.432a.91.91,0,0,1-.91.91H69.269a.91.91,0,0,1-.91-.91V68.026a.91.91,0,0,1,.91-.91H70.7A.91.91,0,0,1,71.611,68.026Zm7.413,0v1.432a.91.91,0,0,1-.91.91H76.682a.91.91,0,0,1-.91-.91V68.026a.91.91,0,0,1,.91-.91h1.432A.91.91,0,0,1,79.024,68.026Zm-7.413,5.225v1.432a.91.91,0,0,1-.91.91H69.269a.91.91,0,0,1-.91-.91V73.251a.91.91,0,0,1,.91-.91H70.7A.91.91,0,0,1,71.611,73.251Zm7.413,0v1.432a.91.91,0,0,1-.91.91H76.682a.91.91,0,0,1-.91-.91V73.251a.91.91,0,0,1,.91-.91h1.432A.91.91,0,0,1,79.024,73.251Z"/><text x="0" y="115" fill="#000000" font-size="5px" font-weight="bold" font-family="'Helvetica Neue', Helvetica, Arial-Unicode, Arial, Sans-serif"></text><text x="0" y="120" fill="#000000" font-size="5px" font-weight="bold" font-family="'Helvetica Neue', Helvetica, Arial-Unicode, Arial, Sans-serif"></text></svg>